<svg width="224" height="50" viewBox="0 0 224 50" fill="none" xmlns="http://www.w3.org/2000/svg">
<path d="M120.479 0.574707H0.953064V4.49416H118.828L144.552 29.9857H210.403V26.0662H146.187L120.479 0.574707Z" fill="#FCEE0A"/>
<path d="M137.129 33.2574L115.033 11.3613H88.3286L110.424 33.2574H137.129Z" fill="#FCEE0A"/>
<path d="M100.536 33.2574L78.4401 11.3613H51.7353L73.831 33.2574H100.536Z" fill="#FCEE0A"/>
<path d="M63.9249 33.2574L41.8447 11.3613H15.1243L37.22 33.2574H63.9249Z" fill="#FCEE0A"/>
<path d="M53.5873 37.624L52.1859 39.013L58.4144 45.1853H87.2526V43.2256H59.2242L53.5873 37.624Z" fill="#FCEE0A"/>
<path d="M89.2008 37.624L87.7994 39.013L94.0279 45.1853H122.866V43.2256H94.8377L89.2008 37.624Z" fill="#FCEE0A"/>
<path d="M124.812 37.624L123.411 39.013L129.639 45.1853H158.478V43.2256H130.449L124.812 37.624Z" fill="#FCEE0A"/>
<path opacity="0.55" d="M87.2523 49.9999H61.8554L59.146 46.9756H87.2523V49.9999Z" fill="#FCEE0A"/>
<path opacity="0.77" d="M122.865 49.9999H97.4678L94.7584 46.9756H122.865V49.9999Z" fill="#FCEE0A"/>
<path opacity="0.88" d="M158.475 49.9999H133.063L130.369 46.9756H158.475V49.9999Z" fill="#FCEE0A"/>
<path d="M132.519 15.2808H154.942L168.286 28.5204H146.362L132.519 15.2808Z" fill="#FCEE0A"/>
<path d="M202.703 17.6283L221.498 36.2534L219.13 38.5995L200.335 19.9743L202.703 17.6283Z" fill="#FCEE0A"/>
<path d="M219.062 17.5203L221.429 19.8662L202.634 38.4914L200.267 36.1455L219.062 17.5203Z" fill="#FCEE0A"/>
<path d="M216.432 18.7061C216.432 16.6384 218.13 14.9565 220.216 14.9565C222.303 14.9565 224 16.6384 224 18.7061C224 20.7738 222.303 22.4557 220.216 22.4557C218.13 22.4711 216.432 20.7892 216.432 18.7061Z" fill="#FCEE0A"/>
<path d="M197.636 18.7061C197.636 16.6384 199.334 14.9565 201.42 14.9565C203.507 14.9565 205.204 16.6384 205.204 18.7061C205.204 20.7738 203.507 22.4557 201.42 22.4557C199.334 22.4557 197.636 20.7892 197.636 18.7061Z" fill="#FCEE0A"/>
<path d="M216.432 37.3467C216.432 35.279 218.13 33.5972 220.216 33.5972C222.303 33.5972 224 35.279 224 37.3467C224 39.4144 222.303 41.0963 220.216 41.0963C218.13 41.0963 216.432 39.4144 216.432 37.3467Z" fill="#FCEE0A"/>
<path d="M197.636 37.3462C197.636 35.2785 199.334 33.5967 201.42 33.5967C203.507 33.5967 205.204 35.2785 205.204 37.3462C205.204 39.4139 203.507 41.0958 201.42 41.0958C199.334 41.0958 197.636 39.4139 197.636 37.3462Z" fill="#FCEE0A"/>
</svg>
